<?xml version="1.0" encoding="utf-8"?>
<!-- Generator: Adobe Illustrator 24.1.2, SVG Export Plug-In . SVG Version: 6.00 Build 0)  -->
<svg version="1.1" id="Calque_1" xmlns="http://www.w3.org/2000/svg" xmlns:xlink="http://www.w3.org/1999/xlink" x="0px" y="0px"
     width="512px" height="512px" viewBox="0 0 512 512" style="enable-background:new 0 0 512 512;" xml:space="preserve">
<style type="text/css">
	.st0{fill:#A55A5A;}
</style>
<g id="Calque_2_1_">
	<g>
		<path class="st0" d="M57.3,388.5L31,315.4c8.7-1.9,18-3.4,27.7-4.7c9.7-1.2,20-1.9,30.9-1.9c5.9,10.6,13.3,20.5,22,29.5
			c8.7,9.1,19.1,17.2,30.9,24.4c-14.7,1.9-29.2,5-43.6,9.4C84.6,376.5,70.7,381.9,57.3,388.5z M50.7,100.7
			c12.2,9.1,22.7,19.1,31.6,30.2s10.5,22.9,4.9,35.4c-8.1,17.5-12.5,35.9-13.1,55.3s3.6,38,12.7,56s23.4,34.6,43.1,49.9
			s45.8,27.7,78.3,37c2.8-6.2,6.1-11.3,9.8-15s7.7-7,11.7-9.8c-28.1-9.7-48.3-23-60.5-39.8s-18.8-33-19.7-48.3s2.7-27.8,10.8-37.5
			c8.1-9.4,18.3-11.6,30.5-6.6c-2.5-17.5,1.2-28.4,11.3-32.8c10-4.4,19.7-1.4,29.1,8.9c7.8-21.2,5.9-39.9-5.6-56
			c-11.6-16.1-29.5-20.7-53.9-13.8c-5.9-7.8-13.8-13.9-23.7-18.3c-9.8-4.4-19.9-5-30.2-1.9s-20.7,3.7-31.2,1.6
			c-10.5-2-21.2-6-32.1-12L50.7,100.7z M83,393.6c17.2-6.2,34.5-12.7,51.8-19.5c17.3-6.7,30.1-4,38.2,8.2c5.3,0,10.6,0.4,15.9,1.2
			c5.3,0.8,10.5,2.7,15.5,5.9c0,5.3,0.7,10.4,2.1,15.2c1.4,4.8,3.5,9.3,6.3,13.4h-74.5v-13.6c-5.9,2.8-11.4,6.7-16.4,11.7
			s-9.7,10.9-14.1,17.8L83,393.6z M256,354.7c-9.1,0-16.8,3.1-23.2,9.4s-9.6,13.9-9.6,23s3.2,16.8,9.6,23.2
			c6.4,6.4,14.1,9.6,23.2,9.6c9.1,0,16.7-3.2,23-9.6c6.2-6.4,9.4-14.1,9.4-23.2s-3.1-16.7-9.4-23C272.7,357.9,265.1,354.7,256,354.7
			z M461.3,100.7c-12.2,9.1-22.7,19.1-31.6,30.2s-10.5,22.9-4.9,35.4c8.1,17.5,12.5,35.9,13.1,55.3s-3.6,38-12.7,56
			s-23.4,34.6-43.1,49.9s-45.8,27.7-78.3,37c-2.8-6.2-6.1-11.3-9.8-15s-7.7-7-11.7-9.8c28.1-9.7,48.3-23,60.5-39.8
			s18.8-33,19.7-48.3c0.9-15.3-2.7-27.8-10.8-37.5c-8.1-9.4-18.3-11.6-30.5-6.6c2.5-17.5-1.3-28.4-11.3-32.8
			c-10-4.4-19.7-1.4-29.1,8.9c-7.8-21.2-5.9-39.9,5.6-56c11.6-16.1,29.5-20.7,53.9-13.8c5.9-7.8,13.8-13.9,23.7-18.3
			c9.8-4.4,19.9-5,30.2-1.9c10.3,3.1,20.7,3.7,31.2,1.6c10.5-2,21.2-6,32.1-12L461.3,100.7z M429,393.6
			c-17.2-6.2-34.5-12.7-51.8-19.5c-17.3-6.7-30.1-4-38.2,8.2c-5.3,0-10.6,0.4-15.9,1.2c-5.3,0.8-10.5,2.7-15.5,5.9
			c0,5.3-0.7,10.4-2.1,15.2c-1.4,4.8-3.5,9.3-6.3,13.4h74.5v-13.6c5.9,2.8,11.4,6.7,16.4,11.7s9.7,10.9,14.1,17.8L429,393.6z
			 M454.8,388.5l26.3-73.1c-8.8-1.9-18-3.4-27.7-4.7c-9.7-1.2-20-1.9-30.9-1.9c-5.9,10.6-13.3,20.5-22,29.5
			c-8.8,9.1-19.1,17.2-30.9,24.4c14.7,1.9,29.2,5,43.6,9.4C427.4,376.5,441.3,381.9,454.8,388.5z"/>
	</g>
</g>
</svg>
