<?xml version="1.0" encoding="utf-8"?>
<!DOCTYPE svg PUBLIC "-//W3C//DTD SVG 1.1//EN" "http://www.w3.org/Graphics/SVG/1.1/DTD/svg11.dtd" >
<svg version="1.1" xmlns="http://www.w3.org/2000/svg" viewBox="0 0 512 512" x="0px" y="0px" width="512px" height="512px">
  <path
     fill="#FFAA00"
     d="m 446.26941,136.27761 q 0,3.14803 -0.52468,9.18175 -0.52467,6.03372 -4.19736,9.70641 -3.6727,3.6727 -13.11678,3.14803 -9.44408,-0.52468 -20.46216,-7.87007 l -67.15788,86.04604 q 3.67269,8.91941 7.60772,22.82319 3.93504,13.90377 6.55839,30.43091 2.62336,16.52714 3.41036,34.89062 0.78701,18.36348 -2.36102,36.2023 -4.19737,3.67269 -5.50904,10.23108 -1.31168,6.55839 -4.98437,13.90378 -2.62336,34.62828 -16.52714,59.28781 -13.90378,24.65954 -34.62829,38.56332 -20.7245,13.90378 -45.64637,17.31415 -24.92187,3.41035 -49.84374,-4.45972 -24.92186,-7.87005 -46.95805,-27.02054 -22.03618,-19.1505 -36.2023,-50.10608 -3.67269,-7.3454 -6.29604,-14.42846 -2.62336,-7.08305 -2.62336,-14.42844 -16.264801,-8.91941 -29.38157,-23.87253 -13.11678,-14.95312 -20.724501,-34.10362 -7.607731,-19.15049 -8.919414,-42.23601 -1.311673,-23.08552 6.033722,-48.26972 6.820721,-20.46216 17.838808,-36.72697 11.018097,-16.2648 24.134866,-28.8569 13.116769,-12.5921 27.545219,-22.03618 14.42846,-9.44408 28.59457,-15.74013 32.5296,-15.21546 69.25657,-20.98683 -35.15295,11.01808 -65.58388,28.33223 -13.11677,7.34539 -26.23353,17.0518 -13.11678,9.70641 -24.92188,21.51151 -11.805098,11.80509 -21.249175,26.23355 -9.444077,14.42845 -14.690779,31.21792 -7.345395,25.1842 -7.607731,45.9087 -0.262337,20.7245 5.246712,37.25164 5.509038,16.52714 16.002462,29.11924 10.493413,12.59211 24.659531,21.51151 -4.19737,-21.51151 1.04934,-39.35032 5.24672,-17.83881 12.5921,-32.00493 -1.04934,-14.16612 1.31168,-26.75821 2.36102,-12.59211 7.08306,-23.34786 4.72204,-10.75576 11.01809,-19.67516 6.29606,-8.91941 12.59211,-16.2648 15.21545,-16.78947 35.15295,-28.85691 -14.69079,13.11678 -26.75822,28.85691 -10.49342,13.64144 -19.67516,31.74258 -9.18174,18.10116 -10.75576,39.61266 7.3454,-8.9194 14.69079,-15.74013 7.3454,-6.82072 13.64144,-12.06743 7.3454,-5.77137 14.69079,-10.49341 -7.34539,6.29605 -14.69079,14.69079 -6.29604,7.34538 -13.64144,18.10114 -7.34539,10.75575 -14.69079,24.92187 0,3.6727 2.36102,9.44408 2.36102,5.77138 2.36102,9.44407 7.34539,18.36348 14.42845,32.5296 7.08306,14.16612 14.42846,25.18421 17.8388,-3.6727 35.15295,-14.42845 17.31414,-10.75576 31.48026,-28.59457 7.34538,-7.34539 13.90378,-16.78947 6.55838,-9.44408 9.70641,-16.78947 l -4.19737,-4.72204 q -7.3454,-5.24671 -12.5921,-12.32977 -5.24671,-7.08306 -7.87007,-13.64144 -2.62335,-6.55839 -2.62335,-12.5921 0,-6.03372 3.6727,-9.70641 3.67269,-3.67271 13.37911,-3.14803 9.70641,0.52467 20.19982,7.87007 l 4.72204,-9.44408 q 3.6727,-14.16612 4.19737,-29.64392 0.52467,-15.47779 0.52467,-37.51397 0,-3.67269 -0.52467,-4.19737 -0.52467,-0.52467 -4.19737,-0.52467 -12.59209,-34.10361 -9.70641,-63.74751 2.88569,-29.643912 16.00247,-51.942422 13.11677,-22.29852 33.3166,-35.939963 20.19983,-13.641443 41.71135,-15.740125 14.16611,-3.6727032 31.48025,-2.8856933 17.31414,0.7870099 31.48026,8.1323943 3.67269,3.672703 7.08306,6.558395 3.41035,2.885683 7.08305,2.885683 7.3454,4.197375 13.64145,10.231087 6.29604,6.033711 10.49342,13.379106 10.49341,14.166116 13.11677,27.545232 2.62335,13.379106 0.26234,24.659526 -2.36102,11.28042 -7.87007,20.19983 -5.50904,8.91941 -10.75575,14.16611 z m -66.63322,-9.96874 q -7.87006,-10.49342 -10.23108,-19.9375 -2.36102,-9.444072 4.98437,-13.116764 0,-4.197365 5.50905,-4.722038 5.50905,-0.524674 9.18174,-0.524674 2.09868,-3.672692 3.93503,-9.444077 1.83636,-5.771385 1.31168,-12.32977 -0.52467,-6.558385 -4.98437,-13.379106 -4.4597,-6.820721 -14.95313,-12.592107 -11.01809,1.57402 -22.29851,7.083058 -11.28042,5.509049 -21.51151,14.428453 -10.23109,8.919404 -18.88815,21.511511 -8.65707,12.592106 -13.90378,28.856904 0,10.49341 3.41036,26.75821 3.41036,16.2648 10.75575,30.95559 4.19737,6.82072 5.24671,13.3791 1.04934,6.5584 4.72204,10.23109 z m -67.68255,81.84867 q -7.34539,-11.01809 -11.28042,-22.56086 -3.93504,-11.54276 -8.13241,-25.70887 0,-3.14802 -2.09868,-4.19737 -1.04933,-0.52467 -2.09868,-0.52467 V 183.498 q 14.16612,22.03618 14.16612,29.38158 z m 14.16612,38.30098 -4.19737,4.19737 q 6.82072,14.69079 13.37911,33.05427 6.55838,18.36348 10.23109,43.54768 0,-12.59209 -1.04935,-22.82318 -1.04934,-10.23109 -3.14803,-19.67517 -2.09868,-9.44407 -6.03371,-18.62581 -3.93503,-9.18174 -9.18174,-19.67516 z m -200.42431,90.2434 V 322.5358 q -7.34539,14.69079 -8.65706,28.85691 -1.31169,14.16611 -1.31169,28.8569 7.3454,3.6727 16.78947,4.19737 9.44408,0.52467 16.78948,0.52467 -7.3454,-11.01809 -13.64145,-22.29852 -6.29604,-11.28042 -9.96875,-25.97121 z m 38.30099,62.43585 q -11.01809,3.67269 -21.77385,1.31167 -10.75575,-2.36102 -21.77385,-6.55838 0,4.19736 2.62336,7.60773 2.62335,3.41035 2.62335,7.08306 21.51151,43.02301 50.63076,60.86183 29.11923,17.8388 57.97613,16.00246 28.85691,-1.83635 52.72944,-19.9375 23.87252,-18.10115 34.89061,-46.95805 -16.2648,16.26479 -36.72697,22.56085 -20.46216,6.29605 -42.23601,3.6727 -21.77384,-2.62336 -42.23601,-14.16612 -20.46217,-11.54276 -36.72696,-31.48025 z m 100.21214,-86.04604 q -3.67269,10.49342 -9.96874,20.7245 -6.29606,10.23108 -13.64145,17.57648 -14.69078,17.83881 -31.48025,29.11924 -16.78947,11.28042 -30.95559,18.62582 19.41283,17.83881 42.49835,24.39719 23.08552,6.55839 44.59703,3.41037 21.51151,-3.14803 39.08798,-15.21547 17.57648,-12.06743 26.49589,-31.48025 2.09868,-21.51151 2.09868,-37.51397 0,-16.00247 -2.36102,-29.11924 -2.36102,-13.11677 -7.08306,-24.3972 -4.72204,-11.28043 -11.54276,-23.87252 l -19.41283,19.41281 q 7.3454,10.49343 10.49343,19.93751 3.14802,9.44407 -0.52467,13.11677 -7.3454,7.34539 -17.31415,4.98437 -9.96874,-2.36102 -20.98684,-9.70641 z m 19.41283,-91.29275 q 2.62336,3.14803 1.57401,6.82072 -0.52466,2.09869 -1.57401,3.14803 l 8.9194,-4.72204 q -3.14801,-4.19736 -4.19736,-8.1324 -1.04935,-3.93503 -4.72204,-10.75575 z m -4.72204,-76.60195 v -8.91942 q 0,-7.34538 0.52468,-13.90378 0.52467,-6.55838 4.19736,-10.23107 0,-14.166115 2.88569,-25.708875 2.8857,-11.54276 6.03371,-22.036184 -10.49341,17.838808 -15.74012,36.726959 -5.24671,18.88816 2.09868,44.07237 z M 413.21514,44.984873 q 7.34539,14.690789 5.50904,28.332232 -1.83635,13.641443 -5.50904,24.65954 1.57401,-3.672703 3.93503,-9.706414 2.36102,-6.033722 3.14803,-13.11678 0.78699,-7.083058 -0.52468,-14.953115 -1.31167,-7.870068 -6.55838,-15.215463 z m 28.33223,38.300983 q 0,11.018086 -2.88569,17.838804 -2.8857,6.82073 -6.03372,11.0181 v 4.72204 q 3.14802,-7.3454 6.03372,-14.95313 2.88569,-7.607728 2.88569,-18.625814 z" />
</svg>
