<svg version="1.2" xmlns="http://www.w3.org/2000/svg" viewBox="0 0 23 24" width="23" height="24"><style>.a{fill:#992120}</style><path class="a" d="m8.1 23.3c-0.9-0.4-1.4-1.4-1.4-2.7 0-1.7 0.7-2.2 2.9-2 1.8 0.1 1.9 0 2.5-1.6 0.4-1 0.4-1.1-0.2-2.1-0.8-1.3-0.8-1.4-0.1-1.4 0.4 0 1 0.5 1.9 1.4 1.1 1.4 1.5 2.3 1 2.3-0.2 0-0.3 0.3-0.3 0.7 0 0.8-1.4 3.9-2.2 4.9-0.4 0.5-3.2 0.9-4.1 0.5zm10-3.9c-1.3-0.5-1.8-2.2-1-3.6 0.2-0.5 0.1-0.7-0.8-1.6-0.6-0.5-1.6-1.1-2.2-1.3-1.8-0.5-1.8-0.7 0.1-0.9 1.3-0.1 2.1-0.1 3 0.3 1.6 0.5 3.2 1.5 4.1 2.4 0.7 0.7 0.7 0.8 0.5 2.5-0.1 0.9-0.3 1.7-0.5 1.9-0.2 0.2-2.7 0.5-3.2 0.3zm-17.3-2.1c-0.4-0.4-0.7-1.1-0.8-1.8-0.2-1.6 0.6-2.3 2.6-2.3 1.2 0 1.6 0.1 2.1 0.7 0.4 0.3 0.9 0.7 1.2 0.8 0.9 0.2 2.6-0.5 3.5-1.4 0.4-0.5 0.9-0.9 1.2-0.9 0.8 0-0.2 3.4-1.3 4.1-0.8 0.5-5 1.5-6.6 1.5-1.1 0-1.4-0.1-1.9-0.7zm4.6-5.4c-0.3-0.2-1.5-0.9-2.5-1.7-2-1.5-2.3-2-2.3-3.7 0-1.4 2-2.6 3.3-2.1 0.6 0.2 1.5 2 1.7 3.4 0.2 1 0.3 1.1 1.6 1.8 0.8 0.4 1.9 0.7 2.3 0.7 1.3 0 1.1 0.5-0.3 1.1-1.5 0.7-2.9 0.8-3.8 0.5zm13.1-1.5q-0.1-0.1-0.3-0.2-0.1-0.1-0.2-0.3-0.2-0.1-0.2-0.3-0.1-0.2-0.2-0.4c-0.1-0.7-0.2-0.8-1-0.6-0.6 0-1.4 0.5-2 0.9-0.6 0.5-1.3 0.8-1.5 0.8-0.5-0.1-0.5-0.2 0.2-1.8 0.9-1.8 1-1.8 4.7-2.5 1.7-0.3 2-0.2 3.2 0.2 1.1 0.5 1.3 0.7 1.3 1.5 0.2 1.9-0.6 3.1-2.2 3.1-0.6 0-1.4-0.2-1.8-0.4zm-8.5-1c-1.2-1.7-1.5-2.5-1-4.3 0.2-0.8 0.8-2.3 1.2-3.3 0.8-1.5 1-1.7 1.8-1.8 2.4-0.2 3.4 0.7 3.4 2.8 0 1.2-1.3 2.7-2.6 2.9-1.1 0.2-1.7 1.6-1.5 3.3 0.2 1.6-0.3 1.7-1.3 0.4z"/></svg>