<?xml version="1.0" encoding="utf-8"?>
<!-- Generator: Adobe Illustrator 24.1.2, SVG Export Plug-In . SVG Version: 6.00 Build 0)  -->
<svg version="1.1" id="Calque_1" xmlns="http://www.w3.org/2000/svg" xmlns:xlink="http://www.w3.org/1999/xlink" x="0px" y="0px"
	 width="500px" height="500px" viewBox="0 0 500 500" style="enable-background:new 0 0 500 500;" xml:space="preserve">
<style type="text/css">
	.st0{fill:#EE6F57;}
	.st1{fill:#E25749;}
	.st2{fill:#FDD578;}
	.st3{fill:#DCE8EF;}
	.st4{fill:#425F73;}
</style>
<g>
	<polygon class="st0" points="241.9,337.4 234.8,362.9 207.8,459.7 172.2,420 121.1,435.5 150.2,331.3 156.4,308.8 206.1,314.1 	"/>
	<polygon class="st0" points="379.1,435.5 328,420 292.4,459.7 265.3,362.9 258.2,337.4 294.1,314.1 343.8,308.8 350,331.3 	"/>
</g>
<g>
	<path class="st1" d="M206.1,314.1l35.8,23.3l-7.1,25.5c-9.8-6.3-18.9-16.4-28.7-19.6c-15.3-5-37.5,3.6-50.2-5.7
		c-2.3-1.7-4.2-3.8-5.7-6.3l6.3-22.5L206.1,314.1z"/>
	<path class="st1" d="M350,331.3c-1.5,2.5-3.4,4.6-5.7,6.3c-12.7,9.2-35,0.7-50.3,5.7c-9.9,3.2-18.9,13.3-28.7,19.6l-7.1-25.5
		l35.8-23.3l49.7-5.3L350,331.3z"/>
</g>
<path class="st2" d="M392.4,183.7c0-16.3,15-34.8,10.2-49.5c-5-15.3-28.1-21.4-37.4-34.1c-9.3-12.8-8.1-36.7-20.9-46.1
	c-12.7-9.2-35-0.7-50.2-5.7c-14.7-4.8-27.7-24.9-44-24.9s-29.3,20.1-44,24.9c-15.3,5-37.5-3.6-50.2,5.7
	c-12.8,9.3-11.6,33.2-20.9,46.1c-9.2,12.7-32.4,18.8-37.4,34.1c-4.8,14.7,10.2,33.2,10.2,49.5s-15,34.8-10.2,49.5
	c5,15.3,28.1,21.4,37.4,34.1c9.3,12.8,8.1,36.7,20.9,46.1c12.7,9.2,35,0.7,50.2,5.7c14.7,4.8,27.7,24.9,44,24.9s29.3-20.1,44-24.9
	c15.3-5,37.5,3.6,50.2-5.7c12.8-9.3,11.6-33.2,20.9-46.1c9.2-12.7,32.4-18.8,37.4-34.1C407.4,218.6,392.4,200.1,392.4,183.7z"/>
<circle class="st3" cx="250.1" cy="183.7" r="101"/>
<g>
	<rect x="213.6" y="137.1" class="st4" width="72.9" height="15"/>
	<rect x="213.6" y="215.4" class="st4" width="72.9" height="15"/>
	<rect x="192.9" y="176.2" class="st4" width="114.5" height="15"/>
</g>
</svg>
