<?xml version="1.0" encoding="utf-8"?>
<!-- Generator: Adobe Illustrator 24.1.2, SVG Export Plug-In . SVG Version: 6.00 Build 0)  -->
<svg version="1.1" xmlns="http://www.w3.org/2000/svg" xmlns:xlink="http://www.w3.org/1999/xlink" x="0px" y="0px"
     width="512px" height="512px" viewBox="0 0 512 512" style="enable-background:new 0 0 512 512;" xml:space="preserve">
<style type="text/css">
	.st0{display:none;}
	.st1{display:inline;}
	.st2{fill:#FFFFFF;}
	.st3{font-family:'L5R-Icons';}
	.st4{font-size:480px;}
	.st5{fill:#A75B58;}
	.st6{fill:#68829B;}
	.st7{fill:#699678;}
	.st8{fill:#917896;}
	.st9{fill:#9B7350;}
	.st10{fill:#5F919B;}
	.st11{fill:#4B4641;}
</style>
<g id="Fond" class="st0">
	<g transform="translate(0,0)" class="st1">
		<path class="st2" d="M249.9,18.6c-81.4,0-231.4,155.8-171.7,300.7c8,25.3,27.9,50.3,49.2,77.1c24.5,30.6,51.6,63.2,68.7,96.9h20.6
			c-18.1-39.8-48.6-75.9-74.6-108.5c-27.4-34.3-48.8-65.3-48.8-88c0-3.6,0.4-7.3,1.1-11.1l-0.1,0c0.3-1.2,0.6-2.5,0.9-3.7
			c0.9-3.8,2.1-7.6,3.7-11.4c23.1-61.4,94.2-106.3,146.6-135l3.6-2l3.9,1.3c60.9,20.9,131.3,66.8,156,135.8c1.1,3,2.1,6,2.9,9
			c0.4,1.4,0.8,2.8,1.2,4.3l-0.2,0c1.1,5.1,1.7,10.2,1.7,15.2v0c0,22.3-24.4,53.5-55,87.5c-29.1,32.3-62.3,67.6-80,106.6H300
			c16.8-32.1,46.2-64,73.3-94.1c23.1-25.7,45.3-50,54.9-74.9C481,200.2,329,18.7,249.9,18.6L249.9,18.6z M250.7,154
			c-38.7,21.5-85,52.2-113.6,88.2c9.7,83,59,146.2,118.3,146.2c59.1,0,108.2-62.7,118.2-145.3C344.7,200.9,295.6,170.1,250.7,154
			L250.7,154z M192.5,237c0.8,0,1.6,0,2.4,0c13,0.1,26,2.7,39.1,7.4c-16.8,40.6-59,42-78.1,0C168.1,239.6,180.3,237.2,192.5,237z
			 M317.4,237c13-0.1,26,2.3,39.1,7.4c-19.1,42-61.3,40.6-78.1,0C291.3,239.7,304.4,237.1,317.4,237L317.4,237z M204.6,512l0.1,0.3
			h86.8l0.1-0.3L204.6,512L204.6,512z"/>
	</g>
	<text transform="matrix(1 0 0 1 -2014.7412 -132.7311)" class="st1"><tspan x="0" y="0" class="st3 st4"> </tspan><tspan x="0" y="576" class="st3 st4"> </tspan><tspan x="0" y="1152" class="st3 st4"></tspan></text>
</g>
<g id="Martial" class="st0">
	<g class="st1">
		<path class="st5" d="M57.3,388.5L31,315.4c8.7-1.9,18-3.4,27.7-4.7c9.7-1.2,20-1.9,30.9-1.9c5.9,10.6,13.3,20.5,22,29.5
			c8.7,9.1,19.1,17.2,30.9,24.4c-14.7,1.9-29.2,5-43.6,9.4C84.6,376.5,70.7,381.9,57.3,388.5z M50.7,100.7
			c12.2,9.1,22.7,19.1,31.6,30.2c8.9,11.1,10.5,22.9,4.9,35.4c-8.1,17.5-12.5,35.9-13.1,55.3c-0.6,19.4,3.6,38,12.7,56
			c9.1,18,23.4,34.6,43.1,49.9c19.7,15.3,45.8,27.7,78.3,37c2.8-6.2,6.1-11.3,9.8-15s7.7-7,11.7-9.8c-28.1-9.7-48.3-23-60.5-39.8
			s-18.8-33-19.7-48.3c-0.9-15.3,2.7-27.8,10.8-37.5c8.1-9.4,18.3-11.6,30.5-6.6c-2.5-17.5,1.2-28.4,11.3-32.8
			c10-4.4,19.7-1.4,29.1,8.9c7.8-21.2,5.9-39.9-5.6-56c-11.6-16.1-29.5-20.7-53.9-13.8c-5.9-7.8-13.8-13.9-23.7-18.3
			c-9.8-4.4-19.9-5-30.2-1.9c-10.3,3.1-20.7,3.7-31.2,1.6c-10.5-2-21.2-6-32.1-12L50.7,100.7z M83,393.6
			c17.2-6.2,34.5-12.7,51.8-19.5c17.3-6.7,30.1-4,38.2,8.2c5.3,0,10.6,0.4,15.9,1.2c5.3,0.8,10.5,2.7,15.5,5.9
			c0,5.3,0.7,10.4,2.1,15.2c1.4,4.8,3.5,9.3,6.3,13.4h-74.5v-13.6c-5.9,2.8-11.4,6.7-16.4,11.7c-5,5-9.7,10.9-14.1,17.8L83,393.6z
			 M256,354.7c-9.1,0-16.8,3.1-23.2,9.4c-6.4,6.3-9.6,13.9-9.6,23c0,9.1,3.2,16.8,9.6,23.2c6.4,6.4,14.1,9.6,23.2,9.6
			c9.1,0,16.7-3.2,23-9.6c6.2-6.4,9.4-14.1,9.4-23.2c0-9.1-3.1-16.7-9.4-23C272.7,357.9,265.1,354.7,256,354.7z M461.3,100.7
			c-12.2,9.1-22.7,19.1-31.6,30.2c-8.9,11.1-10.5,22.9-4.9,35.4c8.1,17.5,12.5,35.9,13.1,55.3c0.6,19.4-3.6,38-12.7,56
			c-9.1,18-23.4,34.6-43.1,49.9c-19.7,15.3-45.8,27.7-78.3,37c-2.8-6.2-6.1-11.3-9.8-15s-7.7-7-11.7-9.8c28.1-9.7,48.3-23,60.5-39.8
			s18.8-33,19.7-48.3c0.9-15.3-2.7-27.8-10.8-37.5c-8.1-9.4-18.3-11.6-30.5-6.6c2.5-17.5-1.3-28.4-11.3-32.8
			c-10-4.4-19.7-1.4-29.1,8.9c-7.8-21.2-5.9-39.9,5.6-56c11.6-16.1,29.5-20.7,53.9-13.8c5.9-7.8,13.8-13.9,23.7-18.3
			c9.8-4.4,19.9-5,30.2-1.9c10.3,3.1,20.7,3.7,31.2,1.6c10.5-2,21.2-6,32.1-12L461.3,100.7z M429,393.6
			c-17.2-6.2-34.5-12.7-51.8-19.5c-17.3-6.7-30.1-4-38.2,8.2c-5.3,0-10.6,0.4-15.9,1.2c-5.3,0.8-10.5,2.7-15.5,5.9
			c0,5.3-0.7,10.4-2.1,15.2c-1.4,4.8-3.5,9.3-6.3,13.4h74.5v-13.6c5.9,2.8,11.4,6.7,16.4,11.7c5,5,9.7,10.9,14.1,17.8L429,393.6z
			 M454.8,388.5l26.3-73.1c-8.8-1.9-18-3.4-27.7-4.7c-9.7-1.2-20-1.9-30.9-1.9c-5.9,10.6-13.3,20.5-22,29.5
			c-8.8,9.1-19.1,17.2-30.9,24.4c14.7,1.9,29.2,5,43.6,9.4C427.4,376.5,441.3,381.9,454.8,388.5z"/>
	</g>
</g>
<g id="Social" class="st0">
	<g class="st1">
		<path class="st6" d="M249.4,382.4L31,265.2c7.8-6.9,15.9-13.3,24.1-19.2c8.3-5.9,17.1-11.3,26.5-15.9c2.8-6.6,5.4-13.2,7.7-19.9
			c2.3-6.7,4.1-13.5,5.4-20.4l-8.4-8.4c9.4-4.1,18.9-7.1,28.6-9.1c9.7-2,19.5-3.2,29.5-3.5c5.3-4.1,10.4-8.8,15.2-14.3
			c4.8-5.5,9.4-11.5,13.8-18l-6.6-11.3c9.1-0.3,18.3,0.5,27.7,2.6c9.4,2,19.2,5.2,29.5,9.6c6.9-1.9,13.4-4.2,19.7-7
			c6.2-2.8,12.2-6.6,17.8-11.3v-12.7c7.8,3.4,15.6,7.6,23.4,12.4c7.8,4.8,15.5,11.5,23,19.9c6.9,2.2,13.8,3.1,20.9,2.8
			c7-0.3,14-1.6,20.9-3.8l3.3-12.7c6.6,7.2,12.7,14.7,18.5,22.5c5.8,7.8,10.5,16.6,14.3,26.3c5.3,5,11.3,9.1,17.8,12.2
			c6.6,3.1,13.9,4.5,22,4.2l7-8.4c4.1,8.1,7.6,17.3,10.5,27.7c3,10.3,5.1,22,6.3,35.2c4.4,5.3,9.1,10.2,14.3,14.8
			c5.2,4.5,10.9,8.4,17.1,11.5L273.3,381.5l14.5,7.5c-3.4,15.3-12.4,22.7-27,22.3s-23.5-7.6-27-21.3L249.4,382.4z M186.2,304.1
			l-4.7,15.5l-17.8,9.4l80.6,42.2L186.2,304.1z M218.5,279.7l-9.4,11.3l-20.2,3.8l60,69.8L218.5,279.7z M256.5,361.3v-90.9l-13.1,7
			l-20.6-6.6L256.5,361.3z M264.9,363.6l31.4-84.8l-15,0.5l-16.9-14.1L264.9,363.6z M328.7,299.4l-7.5-1.9l-17.3-22l-31.4,89.1
			L328.7,299.4z M353,332.7l-8-7.5l-5.6-26.3l-59.5,71.7L353,332.7z"/>
	</g>
</g>
<g id="list" class="st0">
	<g class="st1">
		<path d="M31,258.6c0-30.9,5.9-60.2,17.8-87.7c11.6-27.2,27.6-51,48-71.5c20.5-20.5,44.3-36.5,71.5-48
			c27.5-11.9,56.7-17.8,87.7-17.8s60.2,5.9,87.7,17.8c27.2,11.6,51,27.6,71.5,48c20.5,20.5,36.5,44.3,48,71.5
			c11.9,27.5,17.8,56.7,17.8,87.7s-5.9,60.2-17.8,87.7c-11.6,27.2-27.6,51-48,71.5c-20.5,20.5-44.3,36.5-71.5,48
			c-27.5,11.9-56.7,17.8-87.7,17.8s-60.2-5.9-87.7-17.8c-27.2-11.6-51-27.6-71.5-48c-20.5-20.5-36.5-44.3-48-71.5
			C36.9,318.8,31,289.6,31,258.6z M467.4,258.6c0-29.1-5.5-56.6-16.4-82.5c-11.3-25.6-26.4-48-45.5-67c-19.1-19.1-41.4-34.2-67-45.5
			c-25.9-10.9-53.4-16.4-82.5-16.4s-56.6,5.5-82.5,16.4c-25.6,11.3-48,26.4-67,45.5c-19.1,19.1-34.2,41.4-45.5,67
			c-10.9,25.9-16.4,53.4-16.4,82.5s5.5,56.6,16.4,82.5c11.3,25.6,26.4,48,45.5,67c19.1,19.1,41.4,34.2,67,45.5
			c25.9,10.9,53.4,16.4,82.5,16.4s56.6-5.5,82.5-16.4c25.6-11.3,48-26.4,67-45.5c19.1-19.1,34.2-41.4,45.5-67
			C461.9,315.2,467.4,287.7,467.4,258.6z M75.1,182.2c10.3-24.1,24.3-45,42-62.8c17.7-17.8,38.5-31.9,62.6-42.2
			c23.7-10.3,49.2-15.5,76.4-15.5s52.7,5.2,76.4,15.5c24.1,10.3,45,24.4,62.8,42.2s31.9,38.8,42.2,62.8
			c10.3,23.8,15.5,49.2,15.5,76.4s-5.2,52.7-15.5,76.4c-10.3,24.1-24.4,45-42.2,62.8s-38.8,31.9-62.8,42.2
			c-23.8,10.3-49.2,15.5-76.4,15.5s-52.7-5.2-76.4-15.5c-24.1-10.3-44.9-24.4-62.6-42.2c-17.7-17.8-31.6-38.7-42-62.8
			c-10.3-23.7-15.5-49.2-15.5-76.4S64.8,206,75.1,182.2z M190.6,305.1c13.6-5.6,24.8-16.2,33.5-31.9c-0.3-0.3-0.5-0.6-0.5-0.9
			c0-0.3-0.2-0.6-0.5-0.9c-11.9-3.8-23.4-5.3-34.5-4.7c-11.1,0.6-22,3-32.6,7c-2.2,4.1-5.5,7.3-9.8,9.6c-4.4,2.3-9.1,3.5-14.1,3.5
			c-7.8,0-14.5-2.7-19.9-8.2c-5.5-5.5-8.2-12.1-8.2-19.9c0-7.8,2.7-14.5,8.2-19.9c5.5-5.5,12.1-8.2,19.9-8.2c5,0,9.7,1.2,14.1,3.5
			c4.4,2.3,7.7,5.6,9.8,9.6c10.6,4.1,21.5,6.4,32.6,7c11.1,0.6,22.6-0.9,34.5-4.7c0.3-0.3,0.5-0.6,0.5-0.9c0-0.3,0.2-0.6,0.5-0.9
			c-11.3-20-26.3-33-45.2-39.1c-18.9-6.1-37.3-25.4-55.1-57.9c-12.8,15-22.8,32-30,51.1C86.6,217.2,83,237.4,83,258.6
			c0,21.3,3.6,41.4,10.8,60.5c7.2,19.1,17.2,36.1,30,51.1c4.1-7.5,8.1-14.1,12.2-19.7c4.1-5.6,8.3-10.5,12.7-14.5
			C163,321,177,310.7,190.6,305.1z M248,191.4c-0.6-11.1-3-21.8-7-32.1c-4.1-2.5-7.3-5.9-9.6-10.3c-2.3-4.4-3.5-9.1-3.5-14.1
			c0-7.8,2.7-14.5,8.2-19.9c5.5-5.5,12.1-8.2,19.9-8.2c7.8,0,14.5,2.7,19.9,8.2c5.5,5.5,8.2,12.1,8.2,19.9c0,5-1.2,9.7-3.5,14.1
			c-2.3,4.4-5.6,7.8-9.6,10.3c-4.1,10.3-6.4,21-7,32.1c-0.6,11.1,0.9,22.6,4.7,34.5c0.3,0.3,0.6,0.5,0.9,0.5c0.3,0,0.6,0.2,0.9,0.5
			c20-11.3,33-26.3,39.1-45.2c6.1-18.9,25.4-37.3,57.9-55.1c-15-12.8-32-22.8-51.1-30c-19.1-7.2-39.2-10.8-60.5-10.8
			c-21.3,0-41.4,3.6-60.5,10.8c-19.1,7.2-36.1,17.2-51.1,30c7.5,4.1,14.1,8.1,19.7,12.2c5.6,4.1,10.5,8.3,14.5,12.7
			c15,14.4,25.3,28.4,30.9,42s16.2,24.8,31.9,33.5c0.3-0.3,0.6-0.5,0.9-0.5c0.3,0,0.6-0.2,0.9-0.5C247.1,214,248.7,202.5,248,191.4z
			 M347.9,378.6c-5.6-4.1-10.5-8.3-14.5-12.7c-15-14.4-25.3-28.4-30.9-42s-16.3-24.8-31.9-33.5c-0.3,0.3-0.6,0.5-0.9,0.5
			c-0.3,0-0.6,0.2-0.9,0.5c-3.8,11.9-5.3,23.4-4.7,34.5c0.6,11.1,3,22,7,32.6c4.1,2.2,7.3,5.5,9.6,9.8c2.3,4.4,3.5,9.1,3.5,14.1
			c0,7.8-2.7,14.5-8.2,19.9c-5.5,5.5-12.1,8.2-19.9,8.2c-7.8,0-14.5-2.7-19.9-8.2c-5.5-5.5-8.2-12.1-8.2-19.9c0-5,1.2-9.7,3.5-14.1
			c2.3-4.4,5.5-7.7,9.6-9.8c4.1-10.6,6.4-21.5,7-32.6c0.6-11.1-0.9-22.6-4.7-34.5c-0.3-0.3-0.6-0.5-0.9-0.5c-0.3,0-0.6-0.2-0.9-0.5
			c-20,11.3-33,26.3-39.1,45.2c-6.1,18.9-25.4,37.3-57.9,55.1c15,12.8,32,22.8,51.1,30c19.1,7.2,39.2,10.8,60.5,10.8
			c21.2,0,41.4-3.6,60.5-10.8c19.1-7.2,36.1-17.2,51.1-30C360.1,386.8,353.5,382.7,347.9,378.6z M418.2,198.2
			c-7.2-19.1-17.2-36.1-30-51.1c-4.1,7.5-8.1,14.1-12.2,19.7c-4.1,5.6-8.3,10.5-12.7,14.5c-14.4,15-28.4,25.3-42,30.9
			s-24.8,16.3-33.5,31.9c0.3,0.3,0.5,0.6,0.5,0.9c0,0.3,0.2,0.6,0.5,0.9c11.9,3.8,23.4,5.3,34.5,4.7c11.1-0.6,21.8-3,32.1-7
			c2.5-4.1,5.9-7.3,10.3-9.6c4.4-2.3,9.1-3.5,14.1-3.5c7.8,0,14.5,2.7,19.9,8.2c5.5,5.5,8.2,12.1,8.2,19.9c0,7.8-2.7,14.5-8.2,19.9
			c-5.5,5.5-12.1,8.2-19.9,8.2c-5,0-9.7-1.2-14.1-3.5c-4.4-2.3-7.8-5.5-10.3-9.6c-10.3-4.1-21-6.4-32.1-7
			c-11.1-0.6-22.6,0.9-34.5,4.7c-0.3,0.3-0.5,0.6-0.5,0.9c0,0.3-0.2,0.6-0.5,0.9c11.3,20,26.3,33,45.2,39.1
			c18.9,6.1,37.3,25.4,55.1,57.9c12.8-15,22.8-32,30-51.1c7.2-19.1,10.8-39.2,10.8-60.5C429,237.4,425.4,217.2,418.2,198.2z"/>
	</g>
</g>
<g id="Earth" class="st0">
	<g class="st1">
		<path class="st7" d="M31,258.6c0-30.9,5.9-60.2,17.8-87.7c11.6-27.2,27.6-51,48-71.5c20.5-20.5,44.3-36.5,71.5-48
			c27.5-11.9,56.7-17.8,87.7-17.8s60.2,5.9,87.7,17.8c27.2,11.6,51,27.6,71.5,48c20.5,20.5,36.5,44.3,48,71.5
			c11.9,27.5,17.8,56.7,17.8,87.7s-5.9,60.2-17.8,87.7c-11.6,27.2-27.6,51-48,71.5c-20.5,20.5-44.3,36.5-71.5,48
			c-27.5,11.9-56.7,17.8-87.7,17.8s-60.2-5.9-87.7-17.8c-27.2-11.6-51-27.6-71.5-48c-20.5-20.5-36.5-44.3-48-71.5
			C36.9,318.8,31,289.6,31,258.6z M438.3,181.8c-10.3-24.1-24.5-45.1-42.4-63c-18-18-39-32.1-63-42.4C308.8,66,283.2,60.8,256,60.8
			s-52.8,5.2-76.9,15.5c-24.1,10.3-45.1,24.5-63,42.4c-18,18-32.1,39-42.4,63c-10.3,24.1-15.5,49.7-15.5,76.9
			c0,5.3,0.2,10.6,0.7,15.9c0.5,5.3,1,10.6,1.6,15.9l4.2-0.5c5.9-4.4,11.4-9.3,16.4-14.8c5-5.5,9.7-11.3,14.1-17.6
			c5.3,0.9,10.8,0.8,16.4-0.5c5.6-1.2,10.6-4.8,15-10.8l55.8-75.9l16.4,22l75-83.9l35.2,36.6c4.1,4.4,7.4,9.4,10.1,15
			c2.7,5.6,6,10.8,10.1,15.5c5.3,6.3,10.9,12.4,16.6,18.5c5.8,6.1,12.1,11.6,19,16.6l8.4,6.6l21.1-12.2
			c7.2,17.5,15.2,34.7,24.1,51.6s18.7,33.6,29.3,50.2c2.2-7.8,3.8-15.7,4.7-23.7s1.4-16.2,1.4-24.6
			C453.8,231.5,448.7,205.8,438.3,181.8z M162.3,231.9l37-19.2l-15.9-19.2L162.3,231.9z M313.7,234.3l28.6,47.3
			c5-4.7,9.6-10.5,13.8-17.3c4.2-6.9,8.2-14.5,12-23L288.3,156l-34.7,227.3L313.7,234.3z M405.1,277.4c0.9-2.8,2.3-5.6,4.2-8.4
			l-20.6-37h-1.9l6.1,75c3.1-2.2,5.6-5.2,7.5-9.1c1.9-3.9,3-7.9,3.3-12C403.7,283,404.1,280.2,405.1,277.4z"/>
	</g>
</g>
<g id="Air" class="st0">
	<g class="st1">
		<path class="st8" d="M31,258.6c0-30.9,5.9-60.2,17.8-87.7c11.6-27.2,27.6-50.9,48-71.3c20.5-20.3,44.3-36.4,71.5-48.3
			c27.5-11.9,56.7-17.8,87.7-17.8s60.2,5.9,87.7,17.8c27.2,11.9,51,28,71.5,48.3c20.5,20.3,36.5,44.1,48,71.3
			c11.9,27.5,17.8,56.7,17.8,87.7s-5.9,60.2-17.8,87.7c-11.6,27.2-27.6,51-48,71.5c-20.5,20.5-44.3,36.5-71.5,48
			c-27.5,11.9-56.7,17.8-87.7,17.8s-60.2-5.9-87.7-17.8c-27.2-11.6-51-27.6-71.5-48c-20.5-20.5-36.5-44.3-48-71.5
			C36.9,318.8,31,289.6,31,258.6z M138.8,314c-11.9-5.6-22.6-13.2-32.1-22.7c-9.5-9.5-17.7-21.2-24.6-34.9
			c-7.2-13.7-13-29.8-17.3-48.3c-2.2,8.1-3.8,16.4-4.9,24.8c-1.1,8.4-1.6,17-1.6,25.8c0,3.1,0.1,6.2,0.2,9.1c0.2,3,0.4,5.9,0.7,8.7
			C77.9,293,97,306,116.5,315.4c19.5,9.4,39.6,12.8,60.2,10.3C163,323.2,150.4,319.3,138.8,314z M443.3,194.7
			c-7-20.2-16.8-38.5-29.3-55.1c-20.9-14.1-43.3-21.9-67-23.4c-23.8-1.6-46,1.4-66.8,8.9c-20.8,7.5-38.5,18.6-53.2,33.3
			c-14.7,14.7-23.4,31.3-26.3,49.7c-1.6,10.9,3,21.6,13.6,31.9c10.6,10.3,21.4,15.6,32.3,15.9c8.4,0.3,16.5-3,24.1-9.8
			c7.7-6.9,12-14.4,12.9-22.5c0.6-5.9-0.8-11.7-4.2-17.3c-3.4-5.6-8.9-9.4-16.4-11.3c-4.1-0.9-8.5-0.2-13.4,2.1
			c-4.8,2.3-7.7,5.7-8.7,10.1c-1.3,4.7-1.1,8.4,0.5,11.3c1.6,2.8,4.2,4.2,8,4.2c3.4,0.3,6.3-0.8,8.7-3.3c2.3-2.5,0.5-5.9-5.4-10.3
			c5.9-0.3,10.3,1.3,13.1,4.9c2.8,3.6,3.6,9.1,2.3,16.6c-0.6,4.1-3.4,7.2-8.4,9.4c-5,2.2-9.5,3-13.6,2.3
			c-7.2-1.2-13.8-5.2-19.7-11.7c-5.9-6.6-8.9-13.4-8.9-20.6c0-9.4,3.8-18.8,11.3-28.1s15.9-14.4,25.3-15c12.8-0.9,24.8,1.1,35.9,6.1
			c11.1,5,18.5,19.8,22.3,44.5c5.9-11.3,14.5-19.2,25.8-23.9s22.7-5.7,34.2-3c11.6,2.7,22,9.3,31.4,19.9c9.1,10.3,14.2,25,15.5,44.1
			c0.9,12.2-1.7,23.9-8,35.2c-5.9,11.3-13.8,20.7-23.7,28.4c-9.8,7.7-20.7,12.6-32.6,14.8c-11.9,2.5-23.1,0.9-33.8-4.7
			c2.5,20-0.9,35.9-10.3,47.8c-9.4,11.6-21.6,18.8-36.6,21.8c-15,3-31.3,1.3-48.8-4.9c-17.2-6.2-32.3-17.3-45.5-33.3
			c-1.3-1.2-3.2-1.8-5.9-1.6c-2.7,0.2-4.6,1-5.9,2.6l-5.6,8.4c-17.8-6.2-35.2-16.4-52.3-30.5c-17-14.1-33.8-30.9-50.4-50.6
			c3.8,23.8,11.3,45.9,22.5,66.6c11.6,20.6,26.1,38.5,43.6,53.7c17.5,15.2,37.2,27,59.1,35.4c22.2,8.8,45.8,13.1,70.8,13.1
			c27.2,0,52.8-5.2,76.9-15.5c24.1-10.3,45.1-24.4,63-42.4c18-18,32.1-39,42.4-63c10.3-24.1,15.5-49.7,15.5-76.9
			C453.8,236.1,450.3,214.8,443.3,194.7z M147.7,93.2c-7.2,4.7-14.1,9.8-20.6,15.5s-12.8,11.7-18.8,18.3
			c-4.4,35.6-3.6,64.1,2.3,85.3c5.6,21.3,14.9,37.6,27.9,49c13,11.4,28.8,18.8,47.6,22.3c18.4,3.4,38.1,5,59.1,4.7
			c-26.6-4.1-48.1-11.6-64.7-22.5c-16.3-10.9-28.1-24.8-35.4-41.5c-7.3-16.7-10.5-36.2-9.6-58.4C136.2,143.7,140.2,119.4,147.7,93.2
			z M309.4,68.1c-10.9-3-22.2-5.1-33.8-6.3C256,69,239.1,77.1,225.1,86.1c-13.8,9.4-24.8,19.8-33,31.4
			c-8.3,11.6-13.5,24.1-15.7,37.5c-2.5,13.8-2.2,28.4,0.9,44.1c1.6-16.9,5.8-32.2,12.7-45.9c7.2-14.1,17.4-26.1,30.7-36.1
			c13.3-10,29.9-18.1,49.9-24.4c20-6.6,43.4-10.8,70.3-12.7C330.8,75.1,320.4,71.1,309.4,68.1z M264,317.2c-3.1,2.8-5.2,6.1-6.1,9.8
			c-0.3,1.9,0.2,3.9,1.6,6.1c1.4,2.2,3,3.6,4.9,4.2c1.2,0.3,2.6,0.2,4-0.5c1.4-0.6,2.4-1.4,3-2.3c0.6-0.9,1-1.9,1.2-2.8
			c0.2-0.9,0.1-1.7-0.2-2.3c-0.3-0.6-0.7-1.2-1.2-1.6s-1-0.9-1.6-1.2c8.1-1.2,11.6,2.4,10.5,11c-1.1,8.6-6.5,14-16.2,16.2
			c-8.4,1.6-15-0.5-19.7-6.1s-7.2-12.2-7.5-19.7c0-13.1,5.1-22,15.2-26.5c10.2-4.5,22.7-5.7,37.7-3.5c-13.1-10.9-26.3-14.2-39.4-9.8
			c-13.4,4.1-23.4,11.4-30,22c-6.6,10.6-8,22-4.2,34.2s15.9,20.9,36.6,26.3c22.8,3.4,36.7-3.8,41.7-21.6c5-17.8-1.3-29.4-18.8-34.7
			C271,313.5,267.1,314.4,264,317.2z M379,259.4c2-5.5,2.9-10.9,2.6-16.2c-0.3-4.4-1.7-8.6-4.2-12.7c-2.5-4.1-5.6-7.3-9.4-9.8
			c-2.8-2.2-6.1-3.5-9.8-4s-7.3-0.2-10.8,0.7c-3.1,0.6-6,2-8.7,4c-2.7,2-4.5,4.6-5.4,7.7c-0.6,1.9-0.6,3.9,0,6.1
			c0.6,2.2,1.6,4.1,2.8,5.6c1.6,1.3,3.5,2.1,5.9,2.6s4.5,0.4,6.3-0.2c1.2-0.3,2.4-1.1,3.5-2.3c1.1-1.2,1.6-2.5,1.6-3.8
			c0.3-0.9,0.2-1.8-0.5-2.6c-0.6-0.8-1.4-1.5-2.3-2.1c-0.9-0.6-1.8-1.2-2.6-1.6c-0.8-0.5-1.6-0.9-2.6-1.2c0.3-1.2,1.7-2.1,4.2-2.6
			c2.5-0.5,4.5-0.2,6.1,0.7c3.4,1.6,6.3,4.4,8.7,8.4c2.3,4.1,3,8,2.1,11.7c-1.6,5.3-5.2,9.7-10.8,13.1c-5.6,3.4-11.1,5.2-16.4,5.2
			c-5.9,0-11.6-1.9-16.9-5.6c-5.3-3.8-9.2-8.9-11.7-15.5c-1.6,5.9-3.3,11.1-5.2,15.5c-1.9,4.4-4.1,7.7-6.6,9.8
			c9.4,12.2,20.7,18.4,34,18.5c13.3,0.2,25.7-5.2,37.3-16.2C374.1,269.3,377,264.8,379,259.4z M389.1,227.7
			c4.4,20.3,2.8,37.3-4.7,51.1c-7.5,13.8-22.8,23.4-45.9,29.1c11.9,3.1,23,2.2,33.3-2.8c10.3-5.3,18.4-12.3,24.4-21.1
			c5.9-8.7,8.7-18.4,8.4-29.1C404,244.6,398.8,235.5,389.1,227.7z"/>
	</g>
</g>
<g id="Fire" class="st0">
	<g class="st1">
		<path class="st9" d="M31,258.6c0-30.9,5.9-60.2,17.8-87.7c11.6-27.2,27.6-51,48-71.5c20.5-20.5,44.3-36.5,71.5-48
			c27.5-11.9,56.7-17.8,87.7-17.8s60.2,5.9,87.7,17.8c27.2,11.6,51,27.6,71.5,48c20.5,20.5,36.5,44.3,48,71.5
			c11.9,27.5,17.8,56.7,17.8,87.7s-5.9,60.2-17.8,87.7c-11.6,27.2-27.6,51-48,71.5c-20.5,20.5-44.3,36.5-71.5,48
			c-27.5,11.9-56.7,17.8-87.7,17.8s-60.2-5.9-87.7-17.8c-27.2-11.6-51-27.6-71.5-48c-20.5-20.5-36.5-44.3-48-71.5
			C36.9,318.8,31,289.6,31,258.6z M370.4,384.7c0.3-3.1,1.4-5.3,3.3-6.6c2.8-2.5,4.7-5.4,5.6-8.7s1.4-7.4,1.4-12.4
			c2.2,3.1,3.8,6.8,4.9,11c1.1,4.2,0.9,9.5-0.7,15.7c-0.9,2.2-0.6,3.8,0.9,4.7c1.6,0.9,3.3,0,5.2-2.8c6.6-10.3,9.7-20.7,9.4-31.2
			c-0.3-10.5-3.3-20.9-8.9-31.2c-8.1-16.9-10.2-30.1-6.1-39.6c4.1-9.5,12.8-15.1,26.3-16.6c-13.1,9.1-18.2,18.2-15.2,27.4
			c3,9.2,12,18.5,27,27.9c4.1-5.9,8.3-11.5,12.7-16.6c4.4-5.2,8.9-9.8,13.6-13.8l1.9-0.9c0.6-5.3,1.2-10.6,1.6-15.9
			c0.5-5.3,0.7-10.8,0.7-16.4c0-27.2-5.2-52.8-15.5-76.9c-10.3-24.1-24.5-45.1-42.4-63c-18-18-39-32.1-63-42.4
			C308.8,66,283.2,60.8,256,60.8s-52.8,5.2-76.9,15.5c-24.1,10.3-45.1,24.5-63,42.4c-18,18-32.1,39-42.4,63
			c-10.3,24.1-15.5,49.7-15.5,76.9c0,21.9,3.4,42.7,10.1,62.6c6.7,19.8,16.2,38,28.4,54.6c1.6-0.3,3.4-0.5,5.4-0.5
			c2,0,3.4-0.5,4-1.4c0.6-0.9,0.7-1.9,0.2-2.8s-0.5-1.7-0.2-2.3c2.5-4.4,6.3-8,11.5-10.8s10.1-4.4,14.8-4.7
			c-5.6,5.9-9.4,11.6-11.3,17.1c-1.9,5.5-0.9,10.1,2.8,13.8l10.3,10.8c0.9-6.9,2.3-13.4,4.2-19.7c1.9-6.2,4.1-12.3,6.6-18.3
			c0.9,5.9,2.4,11.8,4.5,17.6c2,5.8,3.4,11.6,4,17.6c10-1.2,14.9-6.6,14.8-16.2c-0.2-9.5-2.1-17.1-5.9-22.7l-6.6-10.3
			c-10.3-16.6-19.1-36.4-26.3-59.5c-7.2-23.1,3.9-42,33.3-56.7c-9.7,9.4-14.6,18.7-14.8,27.9c-0.2,9.2,4.5,17.9,13.8,26
			c2.2-12.8,6.2-20.3,12-22.5c5.8-2.2,8.2-15.3,7.3-39.4c6.2,5.3,9.8,13.7,10.8,25.1c0.9,11.4,4.4,18.4,10.3,20.9
			c7.2-4.1,8.6-12.9,4.2-26.5c-4.4-13.6-9.8-26.6-16.4-39.1c-15-26.9-17.3-49.7-7-68.4c10.3-19.1,24.4-32.3,42.2-39.6
			c17.8-7.3,35-7.7,51.6-1.2c16.6,6.3,23.4,21.3,20.6,45c-1.9-19.1-7.7-30-17.3-32.8c-9.7-2.5-18.1,0-25.3,7.5
			c-7.2,7.5-10.8,18.8-10.8,33.8c0,14.7,8.9,30,26.7,45.9c10.6-2.8,16-8.4,16.2-16.9c0.2-8.4-0.4-15.9-1.6-22.5
			c2.8,6.6,5.6,12.7,8.4,18.5c2.8,5.8,6.4,10.4,10.8,13.8c3.1,3.1,5.4,7.3,6.8,12.7c1.4,5.3,1.6,12,0.7,20.2l20.2,19.2
			c4.1-2.8,6.7-6.2,8-10.1c1.2-3.9,0.6-8.4-1.9-13.4l-5.2-10.3c-5.9-11.9-8.1-23-6.6-33.5c1.6-10.5,10.2-15.7,25.8-15.7
			c-10.9,8.1-16.1,15.6-15.5,22.5c0.6,6.9,3.1,13,7.5,18.3l13.1,15.9c9.1,10.6,15.3,22.7,18.8,36.1c3.4,13.4,0.2,29.1-9.8,46.9
			c9.1,15.6,13,30.2,11.7,43.8c-1.3,13.6-6.6,26.3-15.9,38.2c-0.6,1.9-1.6,3.5-3,4.9s-2.3,3-2.6,4.9c-0.3,2.2-0.2,4.3,0.2,6.3
			c0.5,2,1.2,4.1,2.1,6.3c0.3,0.6,0.7,1.4,1.2,2.3s1.2,1.4,2.1,1.4c1.2,0,2.3-0.8,3.3-2.3c0.9-1.6,1.7-3,2.3-4.2
			C369.1,390.5,370.1,387.9,370.4,384.7z M301,408.6c0.3-7.5,3.8-13.7,10.3-18.8c8.4-6.6,15.7-14.3,21.8-23.2s8.2-17.1,6.3-24.6
			c-1.3,3.4-3.2,5.6-5.9,6.6c-2.7,0.9-5.6,1.3-8.7,0.9l-10.8-0.9c-1.3,0-2-1.1-2.3-3.3c-0.3-2.2-0.2-3.9,0.5-5.2
			c10.3-16.9,16.6-31.2,19-42.9s1-20.2-4-25.5c-1.3,5.3-4.1,11.1-8.7,17.3c-4.5,6.3-8.7,9.5-12.4,9.8h-7c-1.9,0-3.7-0.5-5.4-1.6
			c-1.7-1.1-2.9-2.6-3.5-4.5c-4.4-15.3-10.9-28.5-19.7-39.6c-8.8-11.1-18-21.6-27.7-31.6c10,35.9,9.4,63.8-1.9,83.7
			c-11.3,19.8-30,24.6-56.3,14.3c10,18.1,16.9,35.6,20.6,52.3c3.8,16.7-0.9,31.6-14.1,44.8c-0.3,0.3-0.6,0.5-0.9,0.7
			c-0.3,0.2-0.8,0.2-1.4,0.2h-5.2c-0.9,0-1.9,0.2-2.8,0.7s-1.9,1-2.8,1.6c-0.6,0.6-1.2,1.3-1.6,2.1c-0.5,0.8-0.7,1.6-0.7,2.6
			c-0.3,0.9-0.4,1.9-0.2,2.8c0.2,0.9,0.4,1.7,0.7,2.3c0.6,0.9,1.2,1.7,1.6,2.3c0.5,0.6,1,1.3,1.6,1.9c2.8,2.2,5.9,4.2,9.1,6.1
			s6.6,3.1,10.1,3.8l8.9-2.3c-2.8-3.8-5.1-7.1-6.8-10.1c-1.7-3-2.6-5.1-2.6-6.3c1.9,0.6,3.9,1.9,6.1,3.8c2.2,1.9,4.5,4.1,7,6.6
			l7.5-5.2c1.9-4.7,3.1-9.5,3.8-14.5c0.6-5,0-9.7-1.9-14.1l-7.5-17.8c-0.3-1.2-0.5-2.4-0.7-3.5c-0.2-1.1-0.1-2.3,0.2-3.5l13.1,17.8
			c2.2,3.1,4.4,3.3,6.6,0.5c2.2-2.8,3.9-5.2,5.2-7c1.2-2.5,1.6-5.4,0.9-8.7c-0.6-3.3-1.4-6.3-2.3-9.1c-2.2-5.9-5.2-11.6-8.9-16.9
			c-3.8-5.3-7.8-10.3-12.2-15c6.2,1.9,11.8,5.3,16.6,10.3c4.8,5,9.8,9.8,14.8,14.5c2.5,2.5,4.9,3.4,7.3,2.6c2.3-0.8,2.7-2.9,1.2-6.3
			c-4.1-10.6-5.7-22.7-4.9-36.1c0.8-13.4,6-26.3,15.7-38.4c-0.3,7.2,0,16.5,0.9,27.9c0.9,11.4,4.4,19.8,10.3,25.1
			c4.4,2.2,9.1,1.5,14.1-2.1c5-3.6,8.7-7.7,11.3-12.4c-5.9,17.2-8.2,33.9-6.8,50.2c1.4,16.3-3.5,31.1-14.8,44.5
			c-5,5.6-4.8,10.7,0.5,15.2c5.3,4.5,10.6,4.1,15.9-1.2c-3.4,5.3-5.2,9.4-5.2,12.2s2.5,4.1,7.5,3.8c2.8-0.9,5.5-2,8.2-3.3
			c2.7-1.2,5.2-2.7,7.7-4.2C305.5,426.8,300.7,416.1,301,408.6z"/>
	</g>
</g>
<g id="Water" class="st0">
	<g class="st1">
		<path class="st10" d="M31,258.6c0-30.9,5.9-60.2,17.8-87.7c11.6-27.2,27.6-51,48-71.5c20.5-20.5,44.3-36.5,71.5-48
			c27.5-11.9,56.7-17.8,87.7-17.8s60.2,5.9,87.7,17.8c27.2,11.6,51,27.6,71.5,48c20.5,20.5,36.5,44.3,48,71.5
			c11.9,27.5,17.8,56.7,17.8,87.7s-5.9,60.2-17.8,87.7c-11.6,27.2-27.6,51-48,71.5c-20.5,20.5-44.3,36.5-71.5,48
			c-27.5,11.9-56.7,17.8-87.7,17.8s-60.2-5.9-87.7-17.8c-27.2-11.6-51-27.6-71.5-48c-20.5-20.5-36.5-44.3-48-71.5
			C36.9,318.8,31,289.6,31,258.6z M376,327.8c11.9-8,22-17.1,30.5-27.4c8.4-10,14.8-21.2,19.2-33.5c4.4-12.3,8.1-24.8,11.3-37.3
			c1.6-6.6,2.7-13.1,3.5-19.7c0.8-6.6,1.2-13.1,1.2-19.7c-6.9-19.1-16.4-36.4-28.6-52c-12.5-15.9-26.8-29.6-42.9-41
			c-16.1-11.4-33.8-20.4-53.2-27c-19.4-6.2-39.7-9.4-60.9-9.4c-27.2,0-52.8,5.2-76.9,15.5c-24.1,10.3-45.1,24.5-63,42.4
			c-18,18-32.1,39-42.4,63c-10.3,24.1-15.5,49.7-15.5,76.9c0,10,0.7,19.8,2.1,29.3c1.4,9.5,3.5,18.8,6.3,27.9
			c9.7-44.4,22.7-81.4,38.9-111.1c16.6-29.7,35.9-52.9,58.1-69.6c22.2-16.7,47.2-27.4,75-32.1c27.8-4.4,58-3.8,90.5,1.9l13.1,11.7
			l-17.8,3.3c-3.1,0.6-6.4,1.3-9.8,1.9c-3.4,0.6-6.4,1.9-8.9,3.8c-1.6,0.9-3,2.2-4.5,3.8c-1.4,1.6-1.8,3.1-1.2,4.7
			c0.3,0.9,1,1.5,2.1,1.6c1.1,0.2,2.1,0.4,3,0.7c3.1,0.6,6.2,0.5,9.4-0.2c3.1-0.8,6.2-1,9.4-0.7c3.8,0.3,7.7,0.7,11.7,1.2
			c4.1,0.5,7.8,1.6,11.3,3.5c5.3,2.5,10.6,5.6,15.9,9.4c5.3,3.8,9.2,8.4,11.7,14.1c1.2,3.1,1.5,6.6,0.7,10.3
			c-0.8,3.8-1.5,7.3-2.1,10.8c-3.8-10.3-8.3-16.6-13.6-19c-5.3-2.3-11.6-4-18.8-4.9c-6.9-0.9-12.4,0.5-16.6,4.5
			c-4.2,3.9-4.6,9.3-1.2,16.2c0.6,1.6,1.6,3,3,4.5s2.7,2.7,4,4l12.2,10.3c6.9,5.9,11.6,13.7,14.1,23.2c2.5,9.5,0.2,19.9-7,31.2
			c0-9.1-1.1-16.2-3.3-21.6c-2.2-5.3-5.8-8.3-10.8-8.9l-14.1-3.8c-5.9-1.6-10.2-0.9-12.9,1.9c-2.7,2.8-2.1,7.8,1.6,15l3.8,6.1
			c3.8,6.3,4.8,14.1,3,23.7c-1.7,9.5-5.9,16.2-12.4,19.9c2.2-14.7,0.9-25-3.8-30.9c-4.7-5.9-11.6-9.2-20.6-9.8
			c-6.6-2.5-13.8-2.2-21.6,0.9c-7.8,3.1-14.1,7.3-18.8,12.7c-5,5.6-8.6,12.7-10.8,21.1c-2.2,8.4-2,16.3,0.5,23.4
			c3.1,9.4,9.3,17.2,18.5,23.4c9.2,6.3,18.5,11.1,27.9,14.5c9.7,3.8,20.1,5.9,31.2,6.3c11.1,0.5,21.8-0.5,32.1-3
			C351.8,341.6,364.1,335.8,376,327.8z M189,408.2l-2.8-2.8c-1.9-1.9-1.5-4.8,1.2-8.7c2.7-3.9,5.4-5.7,8.2-5.4l115.8,8.9
			c17.8,1.3,34.6-3.9,50.4-15.5c15.8-11.6,29-26.4,39.6-44.5c-11.9,10.6-26.6,19.3-44.1,26c-17.5,6.7-34.8,9.3-52,7.7l-119.5-9.4
			c-3.8,0.3-6.8,1.6-9.1,3.8c-2.3,2.2-3.7,5.3-4,9.4L157.1,366c-5.9-4.7-10.8-10.5-14.5-17.6s-7.3-14-10.8-20.9
			c-2.5-5.3-2.1-9.5,1.2-12.7c3.3-3.1,7.4-2.8,12.4,0.9l15,9.4l6.1-7l-27.2-23c-4.7-2.8-9.7-2.4-15,1.2c-5.3,3.6-8.3,7.6-8.9,12
			c-1.9,10.9-1,22.3,2.6,34c3.6,11.7,9.4,21.3,17.6,28.8l46.9,46.4L189,408.2z M293,177.6c-0.6-6.6,2.2-12.7,8.4-18.3
			c-19.1-0.6-29.1-4.5-30-11.5s4.7-16.2,16.9-27.4c-17.8-1.2-34.4-0.2-49.7,3.3c-15.3,3.4-29.5,9.1-42.7,17.1s-25.3,18-36.6,30.2
			c-10.9,11.9-21.1,25.6-30.5,41.3c15.6-6.9,30.6-11.9,45-15c14.7-3.1,28.8-4.1,42.4-3c13.6,1.1,26.5,4.6,38.7,10.5
			c12.2,5.9,23.7,14.8,34.7,26.7c-3.4-9.7-3.1-17.2,0.9-22.5c4.1-5.3,11.7-8.4,23-9.4C300.5,191.5,293.7,184.1,293,177.6z"/>
	</g>
</g>
<g id="Void">
	<g>
		<path class="st11" d="M31,258.6c0-30.9,5.9-60.2,17.8-87.7c11.6-27.2,27.6-51,48-71.5c20.5-20.5,44.3-36.5,71.5-48
			c27.5-11.9,56.7-17.8,87.7-17.8s60.2,5.9,87.7,17.8c27.2,11.6,51,27.6,71.5,48c20.5,20.5,36.5,44.3,48,71.5
			c11.9,27.5,17.8,56.7,17.8,87.7s-5.9,60.2-17.8,87.7c-11.6,27.2-27.6,51-48,71.5c-20.5,20.5-44.3,36.5-71.5,48
			c-27.5,11.9-56.7,17.8-87.7,17.8s-60.2-5.9-87.7-17.8c-27.2-11.6-51-27.6-71.5-48c-20.5-20.5-36.5-44.3-48-71.5
			C36.9,318.8,31,289.6,31,258.6z M438.3,181.8c-10.3-24.1-24.5-45.1-42.4-63c-18-18-39-32.1-63-42.4C308.8,66,283.2,60.8,256,60.8
			s-52.8,5.2-76.9,15.5c-24.1,10.3-45.1,24.5-63,42.4c-18,18-32.1,39-42.4,63c-10.3,24.1-15.5,49.7-15.5,76.9
			c0,21.6,3.3,42.2,9.8,61.9c6.6,19.4,15.7,37.2,27.4,53.4c11.7,16.3,25.5,30.5,41.5,42.7c16.2,12.2,33.9,21.7,53,28.6
			c-15-6.2-28.8-14.7-41.3-25.3c-12.5-10.3-23.2-22.2-32.1-35.6c-8.9-13.4-15.9-28-20.9-43.6c-5-15.9-7.5-32.7-7.5-50.2
			c0-23.1,4.4-44.8,13.1-65.2c8.7-20.3,20.7-38,35.9-53.2c15.2-15.2,32.9-27.3,53.2-36.3c20.6-8.7,42.5-13.1,65.6-13.1
			c23.1,0,44.8,4.4,65.2,13.1c20.3,9.1,38.1,21.2,53.4,36.3c15.3,15.2,27.3,32.9,36.1,53.2c8.7,20.3,13.1,42,13.1,65.2
			c0,17.5-2.5,34.2-7.5,50.2c-5,15.9-12,30.6-21.1,44.1c-9.1,13.4-20,25.3-32.8,35.6c-12.5,10.6-26.4,19.1-41.7,25.3
			c19.4-6.9,37.2-16.4,53.4-28.6c16.2-12.2,30.3-26.4,42.2-42.7c11.9-16.2,21.1-34.2,27.7-53.9s9.8-40.3,9.8-61.9
			C453.8,231.5,448.7,205.8,438.3,181.8z M211.9,344.4c12.2-12.2,26.9-18.3,44.1-18.3c17.2,0,31.9,6.1,44.1,18.3
			s18.3,26.9,18.3,44.1c0,12.5-3.4,23.8-10.3,34c-6.9,10.2-15.6,17.7-26.3,22.7c22.8-5.9,41.7-18.3,56.7-37S361,367.7,361,343
			c0-12.8-2.2-25-6.6-36.6c-4.4-11.6-10.5-22-18.3-31.2c-7.8-9.2-17-16.9-27.7-23.2c-10.6-6.2-22-10.5-34.2-12.7
			c7.2,3.4,13.1,8.7,17.8,15.7s7,14.8,7,23.2c0,12.2-4.2,22.4-12.7,30.7c-8.4,8.3-18.6,12.4-30.5,12.4c-11.9,0-22-4.1-30.5-12.4
			c-8.4-8.3-12.7-18.5-12.7-30.7c0-8.4,2.3-16.2,6.8-23.2c4.5-7,10.5-12.3,18-15.7c-12.5,2.2-24.1,6.4-34.7,12.7
			c-10.6,6.3-19.8,14-27.4,23.2c-7.7,9.2-13.8,19.6-18.5,31.2c-4.4,11.6-6.6,23.8-6.6,36.6c0,24.7,7.6,46.4,22.7,65.2
			c15.2,18.8,34.1,31.1,57,37c-10.9-5-19.8-12.6-26.5-22.7c-6.7-10.2-10.1-21.5-10.1-34C193.7,371.3,199.8,356.6,211.9,344.4z
			 M304.3,382.4c0-13.4-4.7-24.8-14.1-34.2s-20.8-14.1-34.2-14.1c-13.4,0-24.8,4.7-34.2,14.1s-14.1,20.8-14.1,34.2
			c0,13.4,4.7,24.8,14.1,34.2s20.8,14.1,34.2,14.1c13.4,0,24.8-4.7,34.2-14.1S304.3,395.8,304.3,382.4z"/>
	</g>
</g>
</svg>
